<!-- Generated by IcoMoon.io -->
<svg version="1.1" xmlns="http://www.w3.org/2000/svg" width="1216" height="1024" viewBox="0 0 1216 1024">
<title></title>
<g id="icomoon-ignore">
</g>
<path fill="#000" d="M610.107 481.014c-1.154-1.060-3.059-1.060-4.212 0l-35.163 21.213c-0.299 0.182-0.482 0.504-0.482 0.851v37.615c0 1.716 1.404 3.113 3.129 3.113h69.238c1.726 0 3.129-1.398 3.129-3.113v-37.615c0-0.349-0.184-0.671-0.482-0.851l-35.161-21.213zM607.013 482.659c0.070-0.042 0.132-0.092 0.19-0.148 0.216-0.214 0.498-0.331 0.798-0.331s0.583 0.118 0.796 0.331c0.058 0.056 0.122 0.106 0.19 0.148l34.245 20.663-24.806 14.782c-0.472 0.283-0.627 0.891-0.347 1.364 0.188 0.313 0.518 0.486 0.855 0.486 0.174 0 0.349-0.044 0.508-0.14l24.341-14.491v35.3l-33.665-22.396c-1.070-0.853-3.168-0.853-4.166-0.050l-33.732 22.435v-35.29l24.339 14.491c0.16 0.096 0.337 0.14 0.51 0.14 0.339 0 0.669-0.174 0.855-0.486 0.281-0.472 0.126-1.082-0.347-1.364l-24.808-14.782 34.245-20.663zM641.973 541.82h-67.962l33.11-22.038c0.345-0.275 1.416-0.273 1.827 0.050l33.025 21.988zM583.15 506.036h49.698c0.549 0 0.995-0.446 0.995-0.995s-0.446-0.995-0.995-0.995h-49.698c-0.549 0-0.995 0.446-0.995 0.995s0.446 0.995 0.995 0.995z"></path>
</svg>
