<!-- Generated by IcoMoon.io -->
<svg version="1.1" xmlns="http://www.w3.org/2000/svg" width="1024" height="1024" viewBox="0 0 1024 1024">
<title></title>
<g id="icomoon-ignore">
</g>
<path fill="#000" d="M512 478.912c-18.248 0-33.088 14.842-33.088 33.088s14.842 33.088 33.088 33.088 33.088-14.842 33.088-33.088-14.842-33.088-33.088-33.088zM512 542.884c-17.028 0-30.884-13.854-30.884-30.884s13.854-30.884 30.884-30.884 30.884 13.854 30.884 30.884-13.854 30.884-30.884 30.884zM521.283 503.745h-7.219v-7.224c0.068-0.61-0.424-1.102-1.032-1.102h-5.323c-0.558 0-1.024 0.412-1.092 0.968-0.196 1.574-0.55 2.868-1.046 3.846-0.488 0.964-1.146 1.803-1.96 2.496-0.662 0.563-1.803 1.117-3.292 1.599-0.455 0.145-0.765 0.571-0.697 1.049v5.59c-0.066 0.61 0.428 1.102 1.036 1.032l3.090 2.062v9.633c-0.070-0.622 0.076-0.199 0.362 0.476l0.12 0.292c0.010 0.025 1.055 2.628 2.316 3.714 0.929 0.798 2.053 1.415 3.342 1.841 1.206 0.393 2.231 0.623 3.902 0.623 1.408 0 2.74-0.141 3.962-0.428 1.406-0.327 2.678-0.773 3.999-1.396 0.387-0.18 0.633-0.569 0.565-0.995v-4.963c0.066-0.405-0.155-0.778-0.511-0.972s-0.792-0.172-1.131 0.048c-1.454 0.957-2.235 1.127-3.706 1.127-0.685 0-1.28-0.139-1.818-0.436-0.217-0.393-0.531-1.605-0.651-2.082-0.106-0.411-0.198-0.747-0.259-0.916-0.112-0.3-0.112-1.379-0.11-2.626l0.002-5.005h7.151c0.61 0.068 1.102-0.424 1.036-1.032v-6.19c0.066-0.61-0.428-1.102-1.036-1.028zM520.179 509.938h-7.151c-0.61-0.072-1.102 0.42-1.028 1.028l-0.004 6.034c-0.074 1.76-0.074 2.728 0.178 3.404 0.046 0.126 0.108 0.38 0.19 0.689 0.525 2.041 0.856 2.959 1.534 3.358 0.904 0.54 1.936 0.815 3.069 0.815 1.181 0 2.132-0.103 3.21-0.556v2.393c-0.96 0.411-1.907 0.72-2.93 0.96-1.057 0.246-2.221 0.372-3.46 0.372-1.39 0-2.174-0.172-3.214-0.513-1.011-0.333-1.888-0.813-2.595-1.419-0.562-0.482-1.35-1.967-1.704-2.854l-0.136-0.331c-0.196-0.465-0.261-0.622-0.331-1.685v-10.667c0.070-0.61-0.422-1.102-1.030-1.102h-3.021v-3.702c1.419-0.519 2.519-1.108 3.278-1.758 1.040-0.885 1.88-1.95 2.5-3.174 0.502-0.988 0.879-2.196 1.123-3.607h3.269v7.153c0 0.61 0.494 1.102 1.102 1.032h7.151v4.126z"></path>
</svg>
