<!-- Generated by IcoMoon.io -->
<svg version="1.1" xmlns="http://www.w3.org/2000/svg" width="1024" height="1024" viewBox="0 0 1024 1024">
<title></title>
<g id="icomoon-ignore">
</g>
<path fill="#000" d="M512 478.912c-18.244 0-33.090 14.842-33.090 33.088s14.846 33.088 33.090 33.088 33.090-14.842 33.090-33.088-14.846-33.088-33.090-33.088zM512 542.884c-17.028 0-30.882-13.854-30.882-30.884s13.852-30.884 30.882-30.884 30.882 13.854 30.882 30.884-13.852 30.884-30.882 30.884zM530.147 501.776c0.227-0.42 0.416-0.866 0.563-1.326 0.137-0.438-0.004-0.914-0.362-1.199-0.356-0.285-0.858-0.318-1.249-0.085-1.057 0.629-2.198 1.092-3.396 1.388-1.441-1.301-3.332-2.035-5.286-2.035-4.343 0-7.875 3.534-7.875 7.871 0 0.108 0.002 0.217 0.006 0.325-4.612-0.575-8.868-2.92-11.835-6.558-0.227-0.281-0.579-0.428-0.941-0.403-0.36 0.027-0.685 0.23-0.867 0.546-0.697 1.197-1.067 2.566-1.067 3.96 0 1.321 0.327 2.593 0.931 3.72-0.151 0.023-0.302 0.079-0.441 0.161-0.337 0.199-0.544 0.602-0.544 0.991 0 2.343 1.042 4.492 2.722 5.952-0.023 0.021-0.046 0.046-0.072 0.072-0.258 0.292-0.343 0.697-0.223 1.069 0.724 2.258 2.401 4.016 4.508 4.88-2.147 1.061-4.643 1.477-7.029 1.195-0.503-0.045-0.991 0.238-1.168 0.726-0.17 0.482 0.010 1.020 0.443 1.299 3.286 2.105 7.079 3.216 10.975 3.216 12.753 0 20.378-10.359 20.378-20.376 0-0.112 0-0.225-0.002-0.339 1.232-0.962 2.3-2.111 3.179-3.425 0.271-0.407 0.242-0.949-0.072-1.323-0.312-0.37-0.827-0.498-1.27-0.31zM526.548 505.397c-0.302 0.219-0.476 0.575-0.459 0.953 0.012 0.271 0.017 0.55 0.017 0.823 0 8.93-6.797 18.17-18.169 18.17-2.041 0-4.053-0.343-5.956-1.007 2.279-0.436 4.419-1.408 6.283-2.87 0.368-0.289 0.513-0.776 0.366-1.22s-0.56-0.744-1.024-0.751c-1.84-0.037-3.507-0.953-4.527-2.397 0.523-0.035 1.032-0.12 1.532-0.256 0.494-0.134 0.829-0.591 0.811-1.102s-0.383-0.945-0.887-1.044c-2.070-0.414-3.695-1.946-4.295-3.931 0.55 0.137 1.111 0.219 1.677 0.236 0.484-0.002 0.935-0.298 1.084-0.767s-0.025-0.98-0.438-1.253c-1.578-1.055-2.521-2.819-2.521-4.721 0-0.461 0.054-0.916 0.163-1.357 3.573 3.664 8.419 5.875 13.554 6.132 0.362 0.002 0.682-0.128 0.902-0.393s0.306-0.62 0.227-0.958c-0.097-0.418-0.145-0.856-0.145-1.293 0-3.125 2.544-5.67 5.671-5.67 1.563 0 3.069 0.653 4.138 1.791 0.259 0.279 0.645 0.401 1.019 0.327 0.341-0.068 0.678-0.145 1.009-0.236-0.147 0.11-0.302 0.215-0.467 0.312-0.445 0.265-0.645 0.811-0.476 1.301s0.668 0.813 1.173 0.738c0.126-0.014 0.25-0.029 0.376-0.046-0.203 0.168-0.418 0.331-0.637 0.49z"></path>
</svg>
